<?xml version="1.0" encoding="UTF-8" standalone="no"?>
<svg
   xmlns:dc="http://purl.org/dc/elements/1.1/"
   xmlns:cc="http://creativecommons.org/ns#"
   xmlns:rdf="http://www.w3.org/1999/02/22-rdf-syntax-ns#"
   xmlns:svg="http://www.w3.org/2000/svg"
   xmlns="http://www.w3.org/2000/svg"
   xmlns:sodipodi="http://sodipodi.sourceforge.net/DTD/sodipodi-0.dtd"
   xmlns:inkscape="http://www.inkscape.org/namespaces/inkscape"
   width="1000"
   height="1000"
   viewBox="0 0 750.00073 749.99849"
   version="1.1"
   id="svg3"
   sodipodi:docname="LogoV2.svg"
   inkscape:version="0.92.3 (2405546, 2018-03-11)">
  <metadata
     id="metadata9">
    <rdf:RDF>
      <cc:Work
         rdf:about="">
        <dc:format>image/svg+xml</dc:format>
        <dc:type
           rdf:resource="http://purl.org/dc/dcmitype/StillImage" />
        <dc:title></dc:title>
      </cc:Work>
    </rdf:RDF>
  </metadata>
  <defs
     id="defs7" />
  <sodipodi:namedview
     pagecolor="#ffffff"
     bordercolor="#666666"
     borderopacity="1"
     objecttolerance="10"
     gridtolerance="10"
     guidetolerance="10"
     inkscape:pageopacity="0"
     inkscape:pageshadow="2"
     inkscape:window-width="1920"
     inkscape:window-height="1137"
     id="namedview5"
     showgrid="false"
     inkscape:zoom="0.96"
     inkscape:cx="370.25041"
     inkscape:cy="505.49278"
     inkscape:window-x="-8"
     inkscape:window-y="-8"
     inkscape:window-maximized="1"
     inkscape:current-layer="svg3"
     fit-margin-top="0"
     fit-margin-left="0"
     fit-margin-right="0"
     fit-margin-bottom="0"
     units="px"
     inkscape:pagecheckerboard="false" />
  <path
     id="Cathead"
     d="m 483.84949,407.83767 c 35.94,-12.5 77.15,-38.26 100.93,-68.15 13.26,-16.66 14.66,-25.94 22.5,-37.22 7.7,-11.07 33.22,-19.25 34.68,-34.03 0.88,-8.94 -1.49,-13.56 -4.11,-21.73 0,0 -9.67,-30.19 -9.67,-30.19 0,0 -32.99,-101.44 -32.99,-101.44 0,0 -25.77,-79.700005 -25.77,-79.700005 -2.16,-6.53 -7.21,-25.7099995 -12.12,-29.2999997 -4.75,-3.46 -10.87,-1.82 -13.97,2.9600002 0,0 -8.93,26.3399995 -8.93,26.3399995 0,0 -9.25,27.78 -9.25,27.78 -1.73,5.18 -2.98,11.21 -6.23,15.63 -3.85,5.26 -12.23,8.29 -18.13,11.23 -5.6,2.79 -19.85,10.589995 -25.35,10.979995 0,0 -21.74,-4.029995 -21.74,-4.029995 -11.18,-2.2 -29.85,-4.82 -41.06,-4.83 -20.72,-0.04 -35.98,-0.15 -56.76,3.12 0,0 -21.73,4.280003 -21.73,4.280003 -3.24,0.779992 -8.99,2.680002 -12.08,2.310002 -3.09,-0.38 -9.07,-3.680005 -12.07,-5.180005 0,0 -21.53,-11.3 -21.53,-11.3 -8.48,-6.34 -9.39,-12.76 -12.48,-22.21 0,0 -12.5,-38.65 -12.5,-38.65 -2.42,-7.3 -4.16,-20.0399997 -13.87,-20.2399997 -8.15,-0.15 -10.24,8.0099997 -12.27,14.1999997 0,0 -15.65,48.31 -15.65,48.31 0,0 -15.34,47.090005 -15.34,47.090005 0,0 -27.78,85.74 -27.78,85.74 0,0 -12.88,39.85 -12.88,39.85 -2.04,6.11 -6.3,18.13 -6.6,24.15 -0.45,9.25 2.47,8.91 3.57,15.7 7.77,3.31 26.57,17.31 31.47,24.15 4.75,6.62 6.99,17.02 20.97,35.02 19.78,25.47 44.19,43.36 73.15,57.02 0,0 30.34,13.59 30.34,13.59 m -168.28,2.72 c -5.53,2.26 0.13,8.03 4.55,7.12 2.56,-0.53 3.03,-2.92 1.49,-4.82 -1.46,-1.81 -3.8,-2.6 -6.04,-2.3 z m 14.11,12.11 c -5.6,3.13 1.14,11.61 5.78,9.76 2.31,-0.92 2.22,-3.56 1.43,-5.51 -1.16,-2.86 -4.11,-4.86 -7.21,-4.25 z m 13.7,17.84 c -6.24,3.48 0.96,13.42 5.79,11.76 2.51,-0.86 2.8,-3.6 2.28,-5.84 -0.84,-3.62 -4.23,-6.77 -8.07,-5.92 z m 16.18,19.92 c -6.53,3.68 2.16,14.06 7.87,11.84 3.18,-1.24 2.84,-5.13 1.45,-7.58 -1.94,-3.41 -5.48,-5.19 -9.32,-4.26 z m 25.31,14.83 c -4.03,0.99 -5.65,4.32 -2.75,7.61 1.5,1.7 4.26,2.72 6.48,2.9 4.43,0.37 8.29,-3.12 5.13,-7.35 -1.93,-2.58 -5.8,-3.57 -8.86,-3.16 z m 56.85,1.16 c -1.65,0.47 -3.21,0.98 -4.52,2.12 -4.58,4.01 -0.27,9.08 6.18,8.01 2.42,-0.41 5,-1.71 6.09,-4.02 1.7,-3.56 -2.18,-5.97 -5.26,-6.11 -0.95,-0.14 -1.56,-0.05 -2.49,0 z m -26.97,3.4 c -1.3,0.29 -2.61,0.58 -3.73,1.34 -2.79,1.92 -3.24,5.14 -0.38,7.24 1.8,1.33 4.85,1.81 7.01,1.41 3.53,-0.66 7.72,-3.89 4.71,-7.61 -1.71,-2.11 -5.07,-2.71 -7.61,-2.38 z m 34.1,-13.73 c 0,0 0.06,0.17 -0.75,0.5 0,0 -5.96,2.53 -5.96,2.53 -12.22,4.05 -20.9,4.84 -33.62,4.7 -15.44,-0.19 -33.06,-8.81 -43.53,-19.92 -10.33,-10.96 -11.76,-17.1 -19.32,-26.56 -11.51,-14.41 -28.63,-26.28 -47.53,-27.35 -3.23,-0.19 -9.66,0.96 -12.45,2.6 -1.74,1.02 -3.3,2.66 -3,4.83 0.41,2.95 4.13,6.62 6.32,8.47 0,0 19.09,14.37 19.09,14.37 8.2,7.85 16.55,19.99 21.44,30.28 5.86,12.33 7.43,20.51 17.58,31.12 16.68,17.44 36.19,24.16 59.74,25.77 0,0 4.15,0.38 4.15,0.38 8.76,0.1 17.48,-0.53 26.15,-1.78 0,0 11.19,-2.19 11.19,-2.19 0,0 0,0.25 0,0.25 m 172.57,178.78 c 0,0 0,35.37 0,35.37 m 19.06,-35.67 c 0,0 0,35.36 0,35.36 m 18.45,-36.29 c 0,0 0,35.37 0,35.37 m -209.71,-272.76 m 34.44,-20.69 c 2.18,0.13 3.84,0.45 5.52,1.99 5.48,5.01 1.98,14.37 -5.52,14.37 -8.49,0 -11.25,-11.05 -4.31,-15.35 1.37,-0.85 2.75,-0.97 4.31,-1.01 z m 166.97,0 c 2.49,0.13 4.18,0.42 6,2.33 4.89,5.14 1.14,14.03 -6,14.03 -8.28,0 -11.28,-11.03 -4.31,-15.35 1.37,-0.85 2.75,-0.97 4.31,-1.01 z m -166.97,0 c 2.18,0.13 3.84,0.45 5.52,1.99 5.48,5.01 1.98,14.37 -5.52,14.37 -8.49,0 -11.25,-11.05 -4.31,-15.35 1.37,-0.85 2.75,-0.97 4.31,-1.01 z m 166.97,0 c 2.49,0.13 4.18,0.42 6,2.33 4.89,5.14 1.14,14.03 -6,14.03 -8.28,0 -11.28,-11.03 -4.31,-15.35 1.37,-0.85 2.75,-0.97 4.31,-1.01 z m -85.79,70.64 c -1.88,0.28 -3.76,0.54 -5.54,1.24 -5.05,1.98 -10.26,7.35 -12.08,12.46 -1.64,4.58 -1.62,10.87 0.23,15.38 2.69,6.59 10.72,12.83 18,12.91 4.54,0.06 7.59,-0.08 11.69,-2.42 3.89,-2.22 8.15,-6.56 9.77,-10.8 5.6,-14.71 -6.27,-30.7 -22.07,-28.77 z m 27.26,102.99 c 0,0 8.97,24.63 11.04,27.03 0.75,0.87 1.7,1.84 2.67,2.47 1.78,1.14 6.49,2.57 8.61,2.58 4.01,0.01 9.29,-2.38 11.94,-5.36 2.93,-3.3 3.79,-7.08 3.74,-11.38 -0.06,-5.71 -3.33,-9.54 -6.7,-13.84 0,0 -16.74,-16.68 -20.36,-21.21 -2.53,-2.54 -15.83,-17.84 -19.14,-15.46 -5,1.62 1.73,19.31 3.08,22.68 0,0 5.28,12.65 5.28,12.65 0.16,-0.11 -9.28,3.04 -20.89,3.88 -14.22,0.23 -26.21,-1.99 -33.59,-4.75 -11.91,-4.44 -22.55,-11.15 -31.66,-20.03 0,0 -2.2,-2.43 -2.2,-2.43 -3.23,-3.49 -5.94,-6.8 -8.58,-10.77 -7.57,-11.35 -12.26,-23.32 -13.88,-36.9 0,0 -0.57,-6.15 -0.57,-6.15 0,0 0,-8.91 0,-8.91 0,0 0.28,-3.69 0.28,-3.69 0.7,-10.02 3.31,-19.79 7.5,-28.91 10.02,-21.82 29.42,-38.53 52.18,-45.9 4.1,-1.32 9.88,-2.69 14.15,-3.21 0,0 8.3,-0.67 8.3,-0.67 0,0 1.54,0 1.54,0 0,0 4.92,0 4.92,0 0,0 5.22,0.27 5.22,0.27 3.62,0.05 10.28,1.27 13.84,2.2 27.52,7.25 49.84,27.66 59.64,54.38 6.29,17.16 6.53,36.65 1.42,54.12 -4.1,14.05 -9.36,22.09 -18.65,33.21 -3.23,3.87 -4.6,4.88 -8.28,8.04 -0.77,0.67 -1.53,1.19 -3.23,2.88 -1.69,1.38 -6.16,4.69 -6.16,4.69 m -131.29,40.91 c 2.36,-0.23 4.46,-0.02 6.46,1.39 3.79,2.68 4.18,8.96 1.08,12.3 -1.66,1.8 -4.21,2.61 -6.62,2.51 -7.3,-0.32 -10.22,-9.65 -4.9,-14.38 1.22,-1.09 2.41,-1.51 3.98,-1.82 z m 166.98,0.16 c 2.35,-0.24 4.46,-0.03 6.45,1.38 3.79,2.69 4.19,8.96 1.09,12.31 -1.66,1.79 -4.22,2.6 -6.62,2.5 -7.31,-0.32 -10.22,-9.8 -4.91,-14.53 1.22,-1.09 2.42,-1.36 3.99,-1.66 z m -199.43,-0.1 c 0,0 0,4.31 0,4.31 0.07,4.99 1.73,9.42 3.93,13.84 5.43,10.86 15.51,19.56 27.45,22.48 1.99,0.48 7.7,0.88 9.84,0.89 0,0 10.14,0 10.14,0 0,0 4.62,0.3 4.62,0.3 0,0 72.57,0 72.57,0 0,0 4.61,0.31 4.61,0.31 0,0 25.21,0 25.21,0 0,0 4.62,-0.31 4.62,-0.31 0,0 28.59,0 28.59,0 0,0 3.69,-0.33 3.69,-0.33 0,0 3.39,0 3.39,0 14.29,-1.82 26.25,-10.51 32.67,-23.34 1.7,-3.4 4.22,-9.16 4.23,-12.92 m -40.59,-237.7 c 4.11,0.01 7.5,0.76 11.37,2.05 11.24,3.75 19.39,11.06 24.68,21.63 1.79,3.58 4.22,8.92 4.23,12.92 0,0 0,264.76 0,264.76 -0.01,3.75 -2.53,9.51 -4.23,12.91 -6.42,12.84 -18.38,21.52 -32.67,23.34 0,0 -3.38,0 -3.38,0 0,0 -3.69,0.34 -3.69,0.34 0,0 -28.6,0 -28.6,0 0,0 -4.61,0.31 -4.61,0.31 0,0 -25.22,0 -25.22,0 0,0 -4.61,-0.31 -4.61,-0.31 0,0 -72.57,0 -72.57,0 0,0 -4.61,-0.31 -4.61,-0.31 0,0 -10.15,0 -10.15,0 -2.14,0 -7.85,-0.41 -9.84,-0.89 -11.94,-2.92 -22.02,-11.62 -27.45,-22.48 -2.2,-4.41 -3.86,-8.84 -3.93,-13.84 0,0 -0.29,-7.99 -0.29,-7.99 0,0 0,-63.66 0,-63.66 0,0 -0.3,-109.67 -0.3,-109.67 0,0 0.18,-12.72 0.18,-12.72 m 0.46,-48.78 c 0,0 -0.34,-14.25 -0.34,-14.25 0,0 0,-4.3 0,-4.3 0.03,-2.64 0.8,-6.07 1.53,-8.61 3.54,-12.33 12.16,-22.14 23.99,-27.19 3.41,-1.46 7.33,-3.25 11.07,-3.26"
     style="fill:none;stroke:#000000;stroke-width:6.00000572;stroke-miterlimit:4;stroke-dasharray:none"
     inkscape:export-xdpi="12.313595"
     inkscape:export-ydpi="12.313595"
     inkscape:connector-curvature="0" />
</svg>
